<?xml version="1.0" encoding="iso-8859-1"?>
<!-- Generator: Adobe Illustrator 19.0.0, SVG Export Plug-In . SVG Version: 6.00 Build 0)  -->
<svg version="1.1" id="Layer_1" xmlns="http://www.w3.org/2000/svg" xmlns:xlink="http://www.w3.org/1999/xlink" x="0px" y="0px"
	 viewBox="0 0 488 488" style="enable-background:new 0 0 488 488;" xml:space="preserve">
<g transform="translate(0 -540.36)">
	<g>
		<g>
			<path d="M101.5,908.21c-22.3,0-40.5,18.2-40.5,40.5c0,22.3,18.2,40.5,40.5,40.5s40.5-18.1,40.5-40.5
				C142,926.41,123.8,908.21,101.5,908.21z M101.5,969.21c-11.3,0-20.5-9.2-20.5-20.5s9.2-20.5,20.5-20.5s20.5,9.2,20.5,20.5
				S112.8,969.21,101.5,969.21z"/>
			<path d="M396.4,908.21c-22.3,0-40.5,18.2-40.5,40.5c0,22.3,18.2,40.5,40.5,40.5c22.4,0,40.5-18.1,40.5-40.5
				C436.9,926.41,418.7,908.21,396.4,908.21z M396.4,969.21c-11.3,0-20.5-9.2-20.5-20.5s9.2-20.5,20.5-20.5s20.5,9.2,20.5,20.5
				S407.7,969.21,396.4,969.21z"/>
			<path d="M142.6,774.91c-5.5,0-10,4.5-10,10v50.8c0,5.5,4.5,10,10,10h50.3c5.6,0,10-4.5,10-10v-50.8c0-5.5-4.5-10-10-10H142.6z
				 M182.9,825.71h-30.3v-30.8h30.3V825.71z"/>
			<path d="M51.2,774.91c-5.5,0-10,4.5-10,10v50.8c0,5.5,4.5,10,10,10h50.3c5.5,0,10-4.5,10-10v-50.8c0-5.5-4.5-10-10-10H51.2z
				 M91.5,825.71H61.2v-30.8h30.3V825.71z"/>
			<path d="M51.2,691.81h50.3c5.5,0,10-4.5,10-10v-50.8c0-5.5-4.5-10-10-10H51.2c-5.5,0-10,4.5-10,10v50.8
				C41.2,687.31,45.7,691.81,51.2,691.81z M61.2,641.01h30.3v30.8H61.2V641.01z"/>
			<path d="M234.1,691.81h50.3c5.5,0,10-4.5,10-10v-50.8c0-5.5-4.5-10-10-10h-50.3c-5.5,0-10,4.5-10,10v50.8
				C224.1,687.31,228.6,691.81,234.1,691.81z M244.1,641.01h30.3v30.8h-30.3V641.01z"/>
			<path d="M142.6,691.81h50.3c5.6,0,10-4.5,10-10v-50.8c0-5.5-4.5-10-10-10h-50.3c-5.5,0-10,4.5-10,10v50.8
				C132.6,687.31,137.1,691.81,142.6,691.81z M152.6,641.01h30.3v30.8h-30.3V641.01z"/>
			<path d="M325.6,691.81h50.3c5.5,0,10-4.5,10-10v-50.8c0-5.5-4.5-10-10-10h-50.3c-5.5,0-10,4.5-10,10v50.8
				C315.6,687.31,320.1,691.81,325.6,691.81z M335.6,641.01h30.3v30.8h-30.3V641.01z"/>
			<path d="M234.1,774.91c-5.5,0-10,4.5-10,10v50.8c0,5.5,4.5,10,10,10h50.3c5.5,0,10-4.5,10-10v-50.8c0-5.5-4.5-10-10-10H234.1z
				 M274.4,825.71h-30.3v-30.8h30.3V825.71z"/>
			<path d="M478,579.51L478,579.51l-468,0c-5.5,0-10,4.5-10,10v349.2c0,5.5,4.5,10,10,10h30.5c5.5,0,10-4.5,10-10s-4.5-10-10-10H20
				v-42.2h295.6v42.2H162.4c-5.5,0-10,4.5-10,10s4.5,10,10,10h173c5.5,0,10-4.5,10-10s-4.4-9.9-9.9-10v-154.6h60.8v113.1
				c0,5.5,4.5,10,10,10s10-4.5,10-10v-123.1c0-5.5-4.5-10-10-10h-80.8c-5.5,0-10,4.5-10,10v102.4H20v-133.2h448v20.8h-20.5
				c-5.5,0-10,4.5-10,10v102.3c0,5.5,4.5,10,10,10H468v52.3h-10.6c-5.5,0-10,4.5-10,10s4.5,10,10,10H478c5.5,0,10-4.5,10-10v-72.3
				v-102.3v-82.3v-50.8v-41.5C488,584.01,483.5,579.51,478,579.51z M468,856.41h-10.5v-82.3H468V856.41z M468,671.81h-21.2v-30.8
				H468V671.81z M468,621.01h-31.2c-5.5,0-10,4.5-10,10v50.8c0,5.5,4.5,10,10,10H468v21.5H20v-113.8h448V621.01z"/>
		</g>
	</g>
</g>
<g>
</g>
<g>
</g>
<g>
</g>
<g>
</g>
<g>
</g>
<g>
</g>
<g>
</g>
<g>
</g>
<g>
</g>
<g>
</g>
<g>
</g>
<g>
</g>
<g>
</g>
<g>
</g>
<g>
</g>
</svg>
