<?xml version="1.0" encoding="iso-8859-1"?>
<!-- Generator: Adobe Illustrator 19.0.0, SVG Export Plug-In . SVG Version: 6.00 Build 0)  -->
<svg version="1.1" id="Capa_1" xmlns="http://www.w3.org/2000/svg" xmlns:xlink="http://www.w3.org/1999/xlink" x="0px" y="0px"
	 viewBox="0 0 490 490" style="enable-background:new 0 0 490 490;" xml:space="preserve">
<path d="M484.34,30.049C445.59,10.109,404.632,0,362.624,0c-40.53,0-80.083,9.414-117.618,27.985C207.471,9.414,167.917,0,127.377,0
	C85.369,0,44.411,10.109,5.661,30.049C2.179,31.837,0,35.416,0,39.32v440.255c0.644,10.778,10.755,11.531,15.191,9.27
	c71.713-36.544,152.85-36.805,224.382,0c1.497,0.773,4.249,1.301,5.347,1.116c1.879,0.134,3.79-0.225,5.517-1.116
	c71.554-36.816,152.819-36.816,224.373,0c1.497,0.773,3.136,1.155,4.764,1.155c1.884,0,10.426-1.968,10.426-10.426V39.32
	C490,35.416,487.822,31.837,484.34,30.049z M233.913,463.04c-68.418-30.254-144.645-30.263-213.063,0V45.765
	c68.184-33.069,144.91-33.058,213.063,0V463.04z M469.149,463.04c-34.208-15.129-69.965-22.786-106.525-22.786
	c-36.561,0-72.318,7.657-106.526,22.786V45.765c68.174-33.069,144.878-33.069,213.051,0V463.04z"/>
<g>
</g>
<g>
</g>
<g>
</g>
<g>
</g>
<g>
</g>
<g>
</g>
<g>
</g>
<g>
</g>
<g>
</g>
<g>
</g>
<g>
</g>
<g>
</g>
<g>
</g>
<g>
</g>
<g>
</g>
</svg>
