<?xml version="1.0" encoding="iso-8859-1"?>
<!-- Generator: Adobe Illustrator 19.0.0, SVG Export Plug-In . SVG Version: 6.00 Build 0)  -->
<svg version="1.1" id="Layer_1" xmlns="http://www.w3.org/2000/svg" xmlns:xlink="http://www.w3.org/1999/xlink" x="0px" y="0px"
	 viewBox="0 0 512.084 512.084" style="enable-background:new 0 0 512.084 512.084;" xml:space="preserve">
<g>
	<g>
		<g>
			<path d="M256.149,0C126.762,0,21.482,104.853,21.482,233.707v223.04c-0.107,15.787,6.4,30.933,17.92,41.707
				c11.093,10.027,25.92,14.933,40.747,13.333c27.733-2.667,47.893-26.56,47.893-56.96v-22.293c0-8.747,3.947-17.173,11.093-23.68
				c8-7.36,18.773-10.987,29.653-10.133c18.027,1.707,33.92,18.347,33.92,35.733v22.293c-0.107,15.787,6.4,30.933,17.92,41.707
				c11.093,10.027,25.92,14.933,40.747,13.333c27.733-2.667,47.893-26.56,47.893-56.96v-22.293c0-8.747,3.947-17.173,11.093-23.68
				c8-7.36,18.773-10.987,29.653-10.133c18.133,1.707,33.92,18.347,33.92,35.733v20.373c0,30.4,20.16,54.293,47.893,56.96
				c1.813,0.213,3.627,0.213,5.333,0.213c13.12,0.107,25.707-4.8,35.413-13.547c11.627-10.773,18.133-25.92,18.027-41.707v-223.04
				C490.816,104.853,385.536,0,256.149,0z M469.482,456.747c0.107,9.813-3.84,19.2-10.987,25.92
				c-6.613,5.973-15.573,8.853-24.427,7.893c-18.773-1.813-28.587-19.307-28.587-35.733v-20.373
				c0-28.587-23.893-54.187-53.227-56.96c-1.813-0.213-3.627-0.213-5.44-0.213c-14.933,0.107-29.44,5.653-40.427,15.787
				c-11.733,10.667-18.133,24.64-18.133,39.467v22.293c0,16.427-9.813,33.92-28.587,35.733c-8.853,0.96-17.813-1.92-24.427-7.893
				c-7.147-6.72-11.093-16.107-10.987-25.92v-22.293c0-28.587-23.893-54.187-53.227-56.96c-16.853-1.493-33.493,4.16-45.973,15.573
				c-11.627,10.667-18.133,24.64-18.133,39.467v22.293c0,16.427-9.813,33.92-28.587,35.733c-8.853,0.96-17.813-1.92-24.427-7.893
				c-7.147-6.72-11.093-16.107-10.987-25.92v-223.04c-0.107-117.12,95.573-212.373,213.227-212.373s213.333,95.253,213.333,212.373
				V456.747z"/>
			<path d="M154.816,160c-20.587,0-37.333,16.747-37.333,37.333c0,20.587,16.747,37.333,37.333,37.333s37.333-16.747,37.333-37.333
				C192.149,176.747,175.402,160,154.816,160z M154.816,213.333c-8.853,0-16-7.147-16-16c0-8.853,7.147-16,16-16s16,7.147,16,16
				C170.816,206.187,163.669,213.333,154.816,213.333z"/>
			<path d="M357.482,160c-20.587,0-37.333,16.747-37.333,37.333c0,20.587,16.747,37.333,37.333,37.333
				c20.587,0,37.333-16.747,37.333-37.333C394.816,176.747,378.069,160,357.482,160z M357.482,213.333c-8.853,0-16-7.147-16-16
				c0-8.853,7.147-16,16-16c8.853,0,16,7.147,16,16C373.482,206.187,366.336,213.333,357.482,213.333z"/>
		</g>
	</g>
</g>
<g>
</g>
<g>
</g>
<g>
</g>
<g>
</g>
<g>
</g>
<g>
</g>
<g>
</g>
<g>
</g>
<g>
</g>
<g>
</g>
<g>
</g>
<g>
</g>
<g>
</g>
<g>
</g>
<g>
</g>
</svg>
